<svg width="77" height="24" viewBox="0 0 77 24" fill="none" xmlns="http://www.w3.org/2000/svg">
<path d="M5.67747 23H0.734286L8.26625 1.18182H14.2108L21.7322 23H16.789L11.3238 6.16761H11.1533L5.67747 23ZM5.36852 14.424H17.0447V18.0249H5.36852V14.424ZM28.9711 1.18182V23H24.3582V1.18182H28.9711ZM32.7664 1.18182H38.4553L44.4639 15.8409H44.7195L50.7281 1.18182H56.417V23H51.9426V8.79901H51.7615L46.1151 22.8935H43.0683L37.422 8.74574H37.2409V23H32.7664V1.18182ZM72.0535 7.45668C71.9683 6.5973 71.6025 5.92969 70.9562 5.45383C70.3099 4.97798 69.4328 4.74006 68.3248 4.74006C67.572 4.74006 66.9363 4.84659 66.4179 5.05966C65.8994 5.26562 65.5017 5.55327 65.2247 5.92258C64.9548 6.2919 64.8199 6.71094 64.8199 7.17969C64.8057 7.57031 64.8873 7.91122 65.0649 8.20241C65.2496 8.49361 65.5017 8.74574 65.8213 8.95881C66.1409 9.16477 66.5102 9.34588 66.9292 9.50213C67.3483 9.65128 67.7957 9.77912 68.2716 9.88565L70.2318 10.3544C71.1835 10.5675 72.0571 10.8516 72.8525 11.2067C73.648 11.5618 74.3369 11.9986 74.9193 12.517C75.5017 13.0355 75.9527 13.6463 76.2723 14.3494C76.599 15.0526 76.7659 15.8587 76.773 16.7678C76.7659 18.103 76.425 19.2607 75.7503 20.2408C75.0827 21.2138 74.1167 21.9702 72.8525 22.5099C71.5954 23.0426 70.0791 23.3089 68.3035 23.3089C66.5422 23.3089 65.0081 23.0391 63.7013 22.4993C62.4015 21.9595 61.3859 21.1605 60.6544 20.1023C59.93 19.0369 59.55 17.7195 59.5145 16.1499H63.9782C64.028 16.8814 64.2375 17.4922 64.6068 17.9822C64.9832 18.4652 65.4839 18.831 66.1089 19.0795C66.741 19.321 67.4548 19.4418 68.2503 19.4418C69.0315 19.4418 69.7098 19.3281 70.2851 19.1009C70.8675 18.8736 71.3184 18.5575 71.6381 18.1527C71.9577 17.7479 72.1175 17.2827 72.1175 16.7571C72.1175 16.267 71.9719 15.8551 71.6807 15.5213C71.3966 15.1875 70.9775 14.9034 70.4236 14.669C69.8767 14.4347 69.2055 14.2216 68.4101 14.0298L66.0344 13.4332C64.1949 12.9858 62.7425 12.2862 61.6771 11.3345C60.6118 10.3828 60.0827 9.10085 60.0898 7.48864C60.0827 6.16761 60.4342 5.01349 61.1444 4.02628C61.8618 3.03906 62.8454 2.26847 64.0954 1.71449C65.3454 1.16051 66.7659 0.883522 68.3568 0.883522C69.9761 0.883522 71.3895 1.16051 72.5969 1.71449C73.8113 2.26847 74.7559 3.03906 75.4307 4.02628C76.1054 5.01349 76.4534 6.15696 76.4747 7.45668H72.0535Z" fill="#FFA941"/>
<path d="M0.0205078 28.9659H77.9662V31.0114H0.0205078V28.9659Z" fill="#FFA941"/>
</svg>
